<?xml version="1.0" encoding="UTF-8" standalone="no"?>
<!-- Created with Inkscape (http://www.inkscape.org/) -->

<svg
   width="129.23647mm"
   height="21.166666mm"
   viewBox="0 0 129.23647 21.166666"
   version="1.1"
   id="svg1"
   inkscape:version="1.4 (86a8ad7, 2024-10-11)"
   sodipodi:docname="logo_dark.svg"
   xmlns:inkscape="http://www.inkscape.org/namespaces/inkscape"
   xmlns:sodipodi="http://sodipodi.sourceforge.net/DTD/sodipodi-0.dtd"
   xmlns:xlink="http://www.w3.org/1999/xlink"
   xmlns="http://www.w3.org/2000/svg"
   xmlns:svg="http://www.w3.org/2000/svg">
  <sodipodi:namedview
     id="namedview1"
     pagecolor="#ffffff"
     bordercolor="#000000"
     borderopacity="0.25"
     inkscape:showpageshadow="2"
     inkscape:pageopacity="0.0"
     inkscape:pagecheckerboard="0"
     inkscape:deskcolor="#d1d1d1"
     inkscape:document-units="mm"
     inkscape:zoom="1.4378367"
     inkscape:cx="176.30653"
     inkscape:cy="29.558294"
     inkscape:window-width="1920"
     inkscape:window-height="1009"
     inkscape:window-x="-8"
     inkscape:window-y="-8"
     inkscape:window-maximized="1"
     inkscape:current-layer="g1" />
  <defs
     id="defs1">
    <linearGradient
       inkscape:collect="always"
       xlink:href="#linearGradient25"
       id="linearGradient28"
       gradientUnits="userSpaceOnUse"
       gradientTransform="matrix(0.71666333,0,0,0.71666333,48.217436,-1.1876251)"
       x1="80.653152"
       y1="152.50238"
       x2="130.54419"
       y2="152.50238" />
    <linearGradient
       id="linearGradient25"
       inkscape:collect="always">
      <stop
         style="stop-color:#1a73e8;stop-opacity:1;"
         offset="0"
         id="stop24" />
      <stop
         style="stop-color:#ef5aff;stop-opacity:1;"
         offset="1"
         id="stop25" />
    </linearGradient>
  </defs>
  <g
     inkscape:label="Layer 1"
     inkscape:groupmode="layer"
     id="layer1"
     transform="translate(-105.56441,-99.544174)">
    <g
       id="g1"
       transform="matrix(0.84565375,0,0,0.84565375,16.293471,15.36427)">
      <path
         id="path26"
         style="fill:url(#linearGradient28);fill-opacity:1;stroke-width:0.716663;stroke-linecap:round;stroke-linejoin:round"
         d="m 111.79883,99.544278 c -3.42259,0 -6.23442,2.811832 -6.23442,6.234402 0,3.14734 2.37276,5.77528 5.42113,6.17848 0.26266,0.0348 0.5341,0.0558 0.81329,0.0558 h 4.08454 c 1.10381,0 1.9343,0.8305 1.9343,1.93433 0,1.10381 -0.83049,1.9343 -1.9343,1.9343 h -2.81983 a 2.1551507,2.1551507 0 0 0 -2.15504,2.15505 2.1500499,2.1500499 0 0 0 2.15504,2.14505 h 2.81983 c 3.42257,0 6.2344,-2.81185 6.2344,-6.2344 0,-3.14735 -2.37276,-5.77529 -5.42111,-6.17849 -0.26268,-0.0348 -0.53412,-0.0559 -0.81329,-0.0559 h -4.08454 c -1.10383,0 -1.93432,-0.83051 -1.93432,-1.93432 0,-1.10381 0.83061,-1.93469 1.93432,-1.93469 h 8.14723 c 1.18772,-8e-5 2.15052,-0.96289 2.1506,-2.1506 -4.1e-4,-1.18733 -0.96327,-2.149525 -2.1506,-2.149116 z m 20.52716,0 c -5.56437,0 -10.12303,4.558292 -10.12303,10.122662 0,5.56436 4.55866,10.12119 10.12303,10.12119 4.82703,0 8.89357,-3.43001 9.88712,-7.97133 0.0183,-0.0813 0.0344,-0.16304 0.0503,-0.24517 0.0183,-0.0929 0.0349,-0.18587 0.0503,-0.27962 3.3e-4,-0.002 4.3e-4,-0.004 7.3e-4,-0.006 0.0102,-0.0648 0.0204,-0.12962 0.0292,-0.19483 0.0163,-0.11454 0.0318,-0.22944 0.0444,-0.34516 0.004,-0.043 0.008,-0.0864 0.0122,-0.12962 0.0143,-0.13771 0.0245,-0.27593 0.0318,-0.41515 7.1e-4,-0.0167 7.1e-4,-0.0334 0.002,-0.05 0.008,-0.16056 0.0122,-0.322 0.0122,-0.48442 a 2.1526798,2.1526798 0 0 0 0,-3.6e-4 2.1526798,2.1526798 0 0 0 0,-3.7e-4 2.1526798,2.1526798 0 0 0 -2.15541,-2.14912 h -5.99479 c -1.18733,-4.1e-4 -2.15019,0.96179 -2.1506,2.14912 8e-5,1.18772 0.96288,2.1505 2.1506,2.1506 h 3.35311 c -0.84225,2.11247 -2.89219,3.58716 -5.3241,3.58716 -3.19498,0 -5.73888,-2.54204 -5.73888,-5.73703 0,-3.19497 2.5439,-5.73851 5.73888,-5.73851 0.81126,0 1.58047,0.16407 2.27653,0.46108 1.09735,0.46829 2.47762,0.52182 3.32644,-0.32701 l 0.006,-0.006 c 0.84835,-0.84877 0.85578,-2.25028 -0.15081,-2.90015 -1.57778,-1.01867 -3.45304,-1.611377 -5.45927,-1.611377 z m -24.61172,16.337442 a 2.1500446,2.1500446 0 0 0 -2.14986,2.14986 2.1500446,2.1500446 0 0 0 2.14986,2.15023 2.1500446,2.1500446 0 0 0 2.15024,-2.15023 2.1500446,2.1500446 0 0 0 -2.15024,-2.14986 z" />
      <g
         id="text28"
         style="font-size:14.7527px;font-family:Outfit;-inkscape-font-specification:'Outfit, Normal';text-align:center;letter-spacing:-0.79375px;text-anchor:middle;fill:#000000;stroke:#ff0000;stroke-width:2.32326;stroke-linecap:round;stroke-linejoin:round"
         aria-label="sapaguru"
         transform="matrix(2.0380194,0,0,2.0380194,0.93581702,-89.088126)">
        <path
           style="font-weight:600;-inkscape-font-specification:'Outfit, Semi-Bold';stroke:none;fill:#000000"
           d="m 73.740909,101.91715 q -0.604861,0 -1.194969,-0.16228 -0.575355,-0.16228 -1.062194,-0.44258 -0.48684,-0.29506 -0.840904,-0.70813 l 1.15071,-1.165466 q 0.368818,0.413075 0.855657,0.619616 0.486839,0.20653 1.076947,0.20653 0.472086,0 0.70813,-0.13277 0.250795,-0.132774 0.250795,-0.398322 0,-0.295054 -0.265548,-0.457334 -0.250796,-0.16228 -0.663872,-0.265549 -0.413075,-0.118021 -0.870409,-0.250796 -0.442581,-0.147527 -0.855657,-0.368817 -0.413075,-0.236043 -0.678624,-0.634366 -0.250796,-0.413076 -0.250796,-1.062194 0,-0.678625 0.32456,-1.180216 0.339312,-0.501592 0.958925,-0.781894 0.619614,-0.280301 1.460518,-0.280301 0.885162,0 1.593291,0.309807 0.722882,0.309807 1.194969,0.92942 l -1.165464,1.165463 q -0.324559,-0.398323 -0.737634,-0.575355 -0.398323,-0.177032 -0.87041,-0.177032 -0.427828,0 -0.663871,0.132774 -0.221291,0.132774 -0.221291,0.368817 0,0.265549 0.250796,0.413076 0.265549,0.147527 0.678624,0.265548 0.413076,0.103269 0.855657,0.250796 0.457334,0.132775 0.855656,0.383571 0.413076,0.250795 0.663872,0.663871 0.265549,0.413076 0.265549,1.062194 0,1.047439 -0.752388,1.667059 -0.752388,0.60486 -2.050625,0.60486 z m 6.287549,-0.0148 q -0.973678,0 -1.755571,-0.48683 -0.781893,-0.48684 -1.224474,-1.32775 -0.442581,-0.840901 -0.442581,-1.888343 0,-1.062194 0.442581,-1.903098 0.442581,-0.840904 1.224474,-1.327743 0.781893,-0.486839 1.755571,-0.486839 0.767141,0 1.372001,0.309806 0.604861,0.309807 0.958926,0.87041 0.368817,0.545849 0.398323,1.239226 v 2.56697 q -0.02951,0.708131 -0.398323,1.253981 -0.354065,0.54585 -0.958926,0.87041 -0.60486,0.3098 -1.372001,0.3098 z m 0.354065,-1.78507 q 0.811399,0 1.31299,-0.531099 0.501592,-0.54585 0.501592,-1.401507 0,-0.560602 -0.236043,-0.988431 -0.22129,-0.442581 -0.634366,-0.678624 -0.398323,-0.250796 -0.944173,-0.250796 -0.531097,0 -0.944173,0.250796 -0.398323,0.236043 -0.634366,0.678624 -0.22129,0.427829 -0.22129,0.988431 0,0.575355 0.22129,1.017936 0.236043,0.427829 0.634366,0.678625 0.413076,0.236045 0.944173,0.236045 z m 1.711313,1.63755 v -1.917853 l 0.309807,-1.740819 -0.309807,-1.711313 v -1.755571 h 1.917851 v 7.125556 z m 6.789128,0.14752 q -0.76714,0 -1.386753,-0.3098 -0.619614,-0.32456 -0.988431,-0.87041 -0.368818,-0.54585 -0.398323,-1.253981 v -2.522712 q 0.02951,-0.708129 0.398323,-1.253979 0.38357,-0.560603 0.988431,-0.885162 0.619613,-0.324559 1.386753,-0.324559 0.988431,0 1.770324,0.486839 0.781894,0.486839 1.224475,1.327743 0.457333,0.840904 0.457333,1.903098 0,1.047442 -0.457333,1.888343 -0.442581,0.84091 -1.224475,1.32775 -0.781893,0.48683 -1.770324,0.48683 z m -3.953723,2.83252 V 94.629314 h 1.932604 v 1.873592 l -0.32456,1.726066 0.309807,1.726066 v 4.779872 z m 3.614411,-4.61759 q 0.531098,0 0.944173,-0.236045 0.413076,-0.250796 0.634366,-0.678625 0.236043,-0.442581 0.236043,-1.017936 0,-0.560602 -0.236043,-0.988431 -0.22129,-0.442581 -0.634366,-0.678624 -0.413075,-0.250796 -0.944173,-0.250796 -0.516344,0 -0.92942,0.250796 -0.413075,0.236043 -0.649119,0.678624 -0.22129,0.427829 -0.22129,0.988431 0,0.575355 0.22129,1.017936 0.236044,0.427829 0.634367,0.678625 0.413075,0.236045 0.944172,0.236045 z m 7.246462,1.78507 q -0.973678,0 -1.755571,-0.48683 -0.781893,-0.48684 -1.224474,-1.32775 -0.442581,-0.840901 -0.442581,-1.888343 0,-1.062194 0.442581,-1.903098 0.442581,-0.840904 1.224474,-1.327743 0.781893,-0.486839 1.755571,-0.486839 0.767141,0 1.372001,0.309806 0.604861,0.309807 0.958926,0.87041 0.368817,0.545849 0.398323,1.239226 v 2.56697 q -0.02951,0.708131 -0.398323,1.253981 -0.354065,0.54585 -0.958926,0.87041 -0.60486,0.3098 -1.372001,0.3098 z m 0.354065,-1.78507 q 0.811398,0 1.31299,-0.531099 0.501592,-0.54585 0.501592,-1.401507 0,-0.560602 -0.236043,-0.988431 -0.221291,-0.442581 -0.634366,-0.678624 -0.398323,-0.250796 -0.944173,-0.250796 -0.531097,0 -0.944173,0.250796 -0.398323,0.236043 -0.634366,0.678624 -0.22129,0.427829 -0.22129,0.988431 0,0.575355 0.22129,1.017936 0.236043,0.427829 0.634366,0.678625 0.413076,0.236045 0.944173,0.236045 z m 1.711313,1.63755 v -1.917853 l 0.309807,-1.740819 -0.309807,-1.711313 v -1.755571 h 1.917851 v 7.125556 z"
           id="path1" />
        <path
           style="stroke:none;fill:#000000"
           d="m 103.7152,104.83818 q -1.07695,0 -1.91785,-0.39832 -0.82615,-0.39832 -1.32774,-1.12121 l 0.85565,-0.87041 q 0.42783,0.54585 1.01794,0.82616 0.59011,0.29505 1.4015,0.29505 1.07695,0 1.69657,-0.57536 0.63436,-0.5606 0.63436,-1.51952 v -1.740822 l 0.23604,-1.578539 -0.23604,-1.563786 v -1.844088 h 1.32774 v 6.727235 q 0,1.00318 -0.47208,1.75557 -0.45734,0.75239 -1.29824,1.18021 -0.82615,0.42783 -1.91785,0.42783 z m 0,-3.20133 q -0.95893,0 -1.72607,-0.45734 -0.75238,-0.45733 -1.19497,-1.253977 -0.44258,-0.811399 -0.44258,-1.814582 0,-1.003184 0.44258,-1.785077 0.44259,-0.796646 1.19497,-1.253979 0.76714,-0.472087 1.72607,-0.472087 0.82615,0 1.46052,0.32456 0.63436,0.324559 1.00318,0.914667 0.38357,0.575355 0.41308,1.357248 v 1.85884 q -0.0443,0.767141 -0.42783,1.357247 -0.36882,0.57536 -1.00319,0.89992 -0.63436,0.32456 -1.44576,0.32456 z m 0.26555,-1.25398 q 0.64912,0 1.13596,-0.2803 0.50159,-0.280306 0.76714,-0.781898 0.26554,-0.516344 0.26554,-1.194969 0,-0.678624 -0.2803,-1.180216 -0.26555,-0.516344 -0.75238,-0.796645 -0.48684,-0.295054 -1.15071,-0.295054 -0.66388,0 -1.16547,0.295054 -0.50159,0.280301 -0.79664,0.796645 -0.28031,0.501592 -0.28031,1.165464 0,0.663871 0.28031,1.180216 0.29505,0.516344 0.79664,0.811403 0.51635,0.2803 1.18022,0.2803 z m 7.40876,1.51952 q -0.87041,0 -1.56379,-0.38357 -0.67862,-0.39832 -1.06219,-1.0917 -0.38357,-0.693372 -0.38357,-1.60804 v -4.071745 h 1.32774 v 4.012734 q 0,0.575356 0.19178,1.003184 0.20654,0.413077 0.59011,0.634367 0.38357,0.22129 0.89992,0.22129 0.78189,0 1.22447,-0.48684 0.44258,-0.501591 0.44258,-1.372001 v -4.012734 h 1.32775 v 4.071745 q 0,0.914668 -0.38357,1.60804 -0.38357,0.69338 -1.0622,1.0917 -0.66387,0.38357 -1.54903,0.38357 z m 3.98613,-0.14752 v -7.007535 h 1.32775 v 7.007535 z m 1.32775,-3.997984 -0.5016,-0.221291 q 0,-1.342495 0.61962,-2.139141 0.61961,-0.796646 1.78507,-0.796646 0.5311,0 0.95893,0.191785 0.42783,0.177033 0.79664,0.604861 l -0.8704,0.899915 q -0.2213,-0.236044 -0.48684,-0.339312 -0.26555,-0.103269 -0.61962,-0.103269 -0.73763,0 -1.20972,0.472086 -0.47208,0.472086 -0.47208,1.431012 z m 6.62687,4.145504 q -0.87041,0 -1.56379,-0.38357 -0.67862,-0.39832 -1.06219,-1.0917 -0.38357,-0.693372 -0.38357,-1.60804 v -4.071745 h 1.32774 v 4.012734 q 0,0.575356 0.19178,1.003184 0.20654,0.413077 0.59011,0.634367 0.38357,0.22129 0.89992,0.22129 0.78189,0 1.22447,-0.48684 0.44258,-0.501591 0.44258,-1.372001 v -4.012734 h 1.32775 v 4.071745 q 0,0.914668 -0.38357,1.60804 -0.38357,0.69338 -1.0622,1.0917 -0.66387,0.38357 -1.54903,0.38357 z"
           id="path2" />
      </g>
    </g>
  </g>
</svg>
